# xmcd CD database file
#
# Track frame offsets:
#	150
#	15337
#	31995
#	52496
#	69708
#	82482
#	96539
#	115637
#	129707
#	142947
#	158020
#	172195
#	187558
#	201499
#	216731
#	231954
#	253447
#	271241
#
# Disc length: 3855 seconds
#
# Revision: 0
# Processed by: cddbd v1.5.2PL0 Copyright (c) Steve Scherf et al.
# Submitted via: CDex 1.70beta2
#
DISCID=1a0f0d12
DTITLE=Ben Webster - Jazz Roads CD159 - Swing - Ben Webster Vol.1 (1953-54)
DYEAR=2006
DGENRE=Jazz
TTITLE0=Ben Webster Quintet - Cottontail
TTITLE1=Ben Webster Quintet - Danny Boy (Londonderry Air)
TTITLE2=Ben Webster Quintet - Bounce Blues
TTITLE3=Ben Webster And His Orchestra - That's All
TTITLE4=Ben Webster And His Orchestra - Pennies From Heaven
TTITLE5=Ben Webster And His Orchestra - Tenderly
TTITLE6=Ben Webster And His Orchestra - Jive At Six
TTITLE7=Ben Webster And His Orchestra - Don't Get Around Much Anymore
TTITLE8=Ben Webster And His Orchestra - That's All
TTITLE9=Ben Webster Quartet - Love's Away
TTITLE10=Ben Webster Quartet - You're Mine You
TTITLE11=Ben Webster Quartet - My Funny Valentine
TTITLE12=Ben Webster Quartet - Sophisticated Lady
TTITLE13=Ben Webster With Ralph Burns’ Orchestra - Love Is Here To Stay
TTITLE14=Ben Webster With Ralph Burns’ Orchestra - It Happens To Me
TTITLE15=Ben Webster With Ralph Burns’ Orchestra - All Too Soon
TTITLE16=Ben Webster With Ralph Burns’ Orchestra - Chelsea Bridge
TTITLE17=Ben Webster With Ralph Burns’ Orchestra - Almost Like Being In Love 
EXTD=YEAR: 2006
EXTT0=
EXTT1=
EXTT2=
EXTT3=
EXTT4=
EXTT5=
EXTT6=
EXTT7=
EXTT8=
EXTT9=
EXTT10=
EXTT11=
EXTT12=
EXTT13=
EXTT14=
EXTT15=
EXTT16=
EXTT17=
PLAYORDER=
